<svg xmlns="http://www.w3.org/2000/svg" viewBox="0 0 512 512">
  <defs>
    <linearGradient id="bg" x1="72" y1="64" x2="448" y2="456" gradientUnits="userSpaceOnUse">
      <stop offset="0" stop-color="#ff6a4d"/>
      <stop offset="1" stop-color="#d7342f"/>
    </linearGradient>
    <linearGradient id="ring" x1="164" y1="176" x2="352" y2="364" gradientUnits="userSpaceOnUse">
      <stop offset="0" stop-color="#fff9f2"/>
      <stop offset="1" stop-color="#ffe4ce"/>
    </linearGradient>
  </defs>
  <rect width="512" height="512" rx="126" fill="url(#bg)"/>
  <circle cx="256" cy="256" r="174" fill="#ffffff" opacity=".08"/>
  <rect x="132" y="112" width="104" height="128" rx="20" fill="#fff8f1"/>
  <rect x="276" y="112" width="104" height="128" rx="20" fill="#fff8f1"/>
  <rect x="132" y="172" width="104" height="7" rx="3.5" fill="#ecd9cc"/>
  <rect x="276" y="172" width="104" height="7" rx="3.5" fill="#ecd9cc"/>
  <path d="M170 153h29c17 0 28 9 28 24 0 16-12 25-28 25h-11v20h-18zM188 168v19h10c7 0 11-3 11-10 0-6-4-9-11-9z" fill="#df4837"/>
  <path d="M303 153h49v15h-31v14h27v15h-27v25h-18z" fill="#df4837"/>
  <circle cx="256" cy="338" r="72" fill="#a92a24"/>
  <path d="M256 252c47 0 86 39 86 86 0 15-4 30-12 43" fill="none" stroke="url(#ring)" stroke-width="16" stroke-linecap="round"/>
  <rect x="240" y="313" width="11" height="50" rx="5.5" fill="#fff8f1"/>
  <rect x="261" y="313" width="11" height="50" rx="5.5" fill="#fff8f1"/>
</svg>
